# xmcd
#
# Track frame offsets:
#	150
#	19940
#	41218
#	58004
#	73962
#	99611
#	110421
#	127351
#	138864
#	157150
#	174469
#	188570
#	227860
#
# Disc length: 3399 seconds
#
# Revision: 2
# Processed by: cddbd v1.5.2PL0 Copyright (c) Steve Scherf et al.
# Submitted via: audiograbber 1.83.01
#
DISCID=c30d450d
DTITLE=Mary and Mars - Live at the Old Blinking Light
DYEAR=2004
DGENRE=Country
TTITLE0=It's All Over Now, Baby Blue
TTITLE1=Pretty Polly
TTITLE2=Guess I'm Doin' Fine
TTITLE3=Stillwater Breakdown
TTITLE4=King of Pain
TTITLE5=Hard Hearted
TTITLE6=Ready for the Times to Get Better
TTITLE7=Wheel Hoss
TTITLE8=Deck of Cards
TTITLE9=Southern Accents
TTITLE10=Say a Little Prayer
TTITLE11=Southern Accents
TTITLE12=Sloop John B
EXTD=
EXTT0=
EXTT1=
EXTT2=
EXTT3=
EXTT4=
EXTT5=
EXTT6=
EXTT7=
EXTT8=
EXTT9=
EXTT10=
EXTT11=
EXTT12=
PLAYORDER=
